# xmcd
#
# Track frame offsets: 
#        150
#        22072
#        38277
#        51402
#        62720
#        78515
#        95402
#        115070
#        130855
#        148247
#
# Disc length: 2225 seconds
#
# Revision: 3
# Processed by: cddbd v1.5.1PL2 Copyright (c) Steve Scherf et al.
# Submitted via: ExactAudioCopy v0.95a4
#
DISCID=8608af0a
DTITLE=Willie Nelson - City Of New Orleans
DYEAR=1984
DGENRE=Country
TTITLE0=City Of New Orleans
TTITLE1=Just Out Of Reach
TTITLE2=Good Time Charlie's Got The Blues
TTITLE3=Why Are You Picking On Me
TTITLE4=She's Out Of My Life
TTITLE5=Cry
TTITLE6=Please Come To Boston
TTITLE7=It Turns Me Inside Out
TTITLE8=Wind Beneath My Wings
TTITLE9=Until It's Time For You To Go
EXTD=
EXTT0=
EXTT1=
EXTT2=
EXTT3=
EXTT4=
EXTT5=
EXTT6=
EXTT7=
EXTT8=
EXTT9=
PLAYORDER=
